<?xml version="1.0" standalone="no"?><!DOCTYPE svg PUBLIC "-//W3C//DTD SVG 1.1//EN" "http://www.w3.org/Graphics/SVG/1.1/DTD/svg11.dtd"><svg t="1735394582376" class="icon" viewBox="0 0 1024 1024" version="1.1" xmlns="http://www.w3.org/2000/svg" p-id="7047" xmlns:xlink="http://www.w3.org/1999/xlink" width="64" height="64"><path d="M547.328 16.042667l384 174.549333A85.333333 85.333333 0 0 1 981.333333 268.245333v487.466667a85.333333 85.333333 0 0 1-50.005333 77.653333l-384 174.592a85.333333 85.333333 0 0 1-70.656 0l-384-174.549333A85.333333 85.333333 0 0 1 42.666667 755.754667V268.245333a85.333333 85.333333 0 0 1 50.005333-77.653333l384-174.592a85.333333 85.333333 0 0 1 70.656 0zM767.232 362.666667a42.666667 42.666667 0 0 0-58.24-15.616l-196.224 113.152L316.586667 347.050667a42.666667 42.666667 0 0 0-58.282667 15.616L256 367.146667a42.624 42.624 0 0 0 17.877333 53.76l199.637334 115.157333 0.597333 0.896V768a42.666667 42.666667 0 0 0 85.333333 0v-236.288l192.170667-110.848a42.624 42.624 0 0 0 17.834667-53.76z" fill="#34828D" p-id="7048"></path></svg>